<svg version="1.1" id="Layer_1" xmlns="http://www.w3.org/2000/svg" xmlns:xlink="http://www.w3.org/1999/xlink" x="0px" y="0px"
	 viewBox="0 0 1920 1080" style="enable-background:new 0 0 1920 1080;" xml:space="preserve">
<style type="text/css">
	.st0{fill:#03324C;}
	.st1{fill:#FFFFFF;stroke:#000000;stroke-miterlimit:10;}
	.st2{clip-path:url(#SVGID_2_);fill:none;stroke:#FFFFFF;stroke-miterlimit:10;}
	.st3{clip-path:url(#SVGID_2_);fill:#144372;}
	.st4{clip-path:url(#SVGID_2_);fill:#3A91CE;}
	.st5{clip-path:url(#SVGID_2_);}
	.st6{fill:#3A91CE;}
	.st7{fill:#144372;}
	.st8{fill:none;stroke:#FFFFFF;stroke-miterlimit:10;}
	.st9{fill:#FFFFFF;}
	.st10{fill:#55A4DB;stroke:#FFFFFF;stroke-miterlimit:10;}
	.st11{fill:#144372;stroke:#FFFFFF;stroke-width:0.5;stroke-miterlimit:10;}
	.st12{clip-path:url(#SVGID_2_);fill:#093D5E;stroke:#FFFFFF;stroke-miterlimit:10;}
	.st13{clip-path:url(#SVGID_2_);fill:#144372;stroke:#FFFFFF;stroke-miterlimit:10;}
	.st14{fill:#1A5A8E;}
	.st15{fill:none;stroke:#FFFFFF;stroke-width:3;stroke-miterlimit:10;}
	.st16{fill:none;stroke:#FFFFFF;stroke-width:2;stroke-miterlimit:10;}
	.st17{fill:#093D5E;stroke:#FFFFFF;stroke-miterlimit:10;}
	.st18{fill:#0B598A;stroke:#FFFFFF;stroke-miterlimit:10;}
	.st19{fill:#178FCF;stroke:#FFFFFF;stroke-miterlimit:10;}
	.st20{fill:#144372;stroke:#FFFFFF;stroke-miterlimit:10;}
	.st21{clip-path:url(#SVGID_2_);fill:#55A4DB;stroke:#FFFFFF;stroke-miterlimit:10;}
	.st22{clip-path:url(#SVGID_2_);fill:url(#SVGID_3_);}
	.st23{clip-path:url(#SVGID_2_);fill:none;stroke:url(#SVGID_4_);stroke-width:4;stroke-miterlimit:10;}
	.st24{clip-path:url(#SVGID_2_);fill:none;stroke:url(#SVGID_5_);stroke-width:2;stroke-miterlimit:10;}
	.st25{clip-path:url(#SVGID_2_);fill:none;stroke:url(#SVGID_6_);stroke-miterlimit:10;}
	.st26{clip-path:url(#SVGID_2_);fill:none;stroke:url(#SVGID_7_);stroke-width:2;stroke-miterlimit:10;}
	.st27{clip-path:url(#SVGID_2_);fill:none;stroke:url(#SVGID_8_);stroke-width:2;stroke-miterlimit:10;}
	.st28{clip-path:url(#SVGID_2_);fill:none;stroke:#FFB35B;stroke-miterlimit:10;}
	.st29{clip-path:url(#SVGID_2_);fill:none;stroke:#FFB35B;stroke-width:2;stroke-miterlimit:10;}
	.st30{clip-path:url(#SVGID_2_);fill:none;stroke:url(#SVGID_9_);stroke-width:2;stroke-miterlimit:10;}
	.st31{clip-path:url(#SVGID_2_);fill:none;stroke:url(#SVGID_10_);stroke-width:2;stroke-miterlimit:10;}
	.st32{clip-path:url(#SVGID_2_);fill:none;stroke:url(#SVGID_11_);stroke-width:2;stroke-miterlimit:10;}
	.st33{clip-path:url(#SVGID_2_);fill:none;stroke:url(#SVGID_12_);stroke-width:2;stroke-miterlimit:10;}
</style>
<polygon class="st0" points="609.3,1088.4 1399.6,1080 1398.5,904.5 1369.5,904.5 1369.5,924 1357.5,924 1357.5,884.5 1336.5,884.5
	1336.3,934.9 1221,939.7 1221,897.9 1208.5,898.8 1208.5,850.9 1189.5,850 1189.5,865 1169.5,865 1169.5,839 1103.5,839
	1103.5,850.9 1090.5,850 1090,817.5 1068.6,817.5 1068.8,839.2 1055.5,839 1055.5,859.1 1036.9,860 879.7,865 878.7,847.5
	865,847.5 863.9,827 844.1,827.5 843,808.5 808.5,808.5 809.2,906.3 767.5,906 767.5,958.6 684.5,958.8 684.5,881.1 668.5,881.5
	668.5,901 656.5,901 656.5,861.5 635.5,861.5 635.5,888 615.5,889.7 615.5,913 609.5,913.2 "/>
<g>
	<defs>
		<rect id="SVGID_1_" y="-19" width="1921" height="1116"/>
	</defs>
	<clipPath id="SVGID_2_">
		<use xlink:href="#SVGID_1_"  style="overflow:visible;"/>
	</clipPath>
	<polyline class="st2" points="808.5,884 808.5,808.5 843,808.5 844.1,827.5 863.9,827 865,847.5 878.7,847.5 879.7,865
		1055.5,859.1 1055.5,839 1068.8,839.2 1068.6,817.5 1090.5,817.5 1090.5,850 1103.5,850.9 1103.5,839 1169.5,839 1169.5,865
		1189.5,865 1189.5,850 1208.5,850.9 1208.5,898 1234.9,897.9 	"/>
	<polygon class="st3" points="1029,955 896.1,951.6 943.1,985 985.1,985 	"/>
	<path class="st4" d="M812.5,936v23.5c2.7,1.1,17-14.7,153.3-12.2c119.8-1.3,149,6.7,149,6.7v-23c0,0,12.9-10.7-149-10.7
		C812,917.7,812.5,936,812.5,936z"/>
	<g class="st5">
		<rect x="501" y="811.3" class="st6" width="61.3" height="7.3"/>
		<rect x="516.1" y="714.5" class="st6" width="32.2" height="7.3"/>
		<rect x="524.9" y="812.5" class="st7" width="16.1" height="15"/>
		<g>
			<polygon class="st8" points="542.5,1021.5 542.5,827.5 533.7,828.6 533.5,1021.5 			"/>
			<rect x="501" y="808.1" class="st8" width="61.3" height="10.4"/>

				<rect x="504" y="822.2" transform="matrix(2.229806e-010 1 -1 2.229806e-010 1332.2585 314.4999)" class="st9" width="9.7" height="2.4"/>

				<rect x="510.1" y="822.8" transform="matrix(1.115843e-010 1 -1 1.115843e-010 1338.3613 308.3971)" class="st9" width="9.7" height="1.2"/>

				<rect x="505.2" y="814.9" transform="matrix(1.778371e-010 1 -1 1.778371e-010 1323.7887 307.2427)" class="st9" width="6.1" height="1.2"/>

				<rect x="512.4" y="716.4" transform="matrix(1.779872e-010 1 -1 1.779872e-010 1232.4563 201.5437)" class="st9" width="6.1" height="1.2"/>

				<rect x="517.9" y="716.4" transform="matrix(1.779872e-010 1 -1 1.779872e-010 1237.8938 196.1062)" class="st9" width="6.1" height="1.2"/>

				<rect x="523.3" y="716.4" transform="matrix(1.779872e-010 1 -1 1.779872e-010 1243.3313 190.6687)" class="st9" width="6.1" height="1.2"/>

				<rect x="528.7" y="716.4" transform="matrix(1.779872e-010 1 -1 1.779872e-010 1248.7688 185.2312)" class="st9" width="6.1" height="1.2"/>

				<rect x="534.2" y="716.4" transform="matrix(1.779872e-010 1 -1 1.779872e-010 1254.2063 179.7937)" class="st9" width="6.1" height="1.2"/>

				<rect x="539.6" y="716.4" transform="matrix(1.779872e-010 1 -1 1.779872e-010 1259.6438 174.3562)" class="st9" width="6.1" height="1.2"/>

				<rect x="545" y="716.4" transform="matrix(1.779872e-010 1 -1 1.779872e-010 1265.0759 168.9241)" class="st9" width="6.1" height="1.2"/>

				<rect x="513.3" y="814.9" transform="matrix(1.779872e-010 1 -1 1.779872e-010 1331.8218 299.2096)" class="st9" width="6.1" height="1.2"/>

				<rect x="521.3" y="814.9" transform="matrix(1.779872e-010 1 -1 1.779872e-010 1339.8549 291.1765)" class="st9" width="6.1" height="1.2"/>

				<rect x="529.3" y="814.9" transform="matrix(1.779872e-010 1 -1 1.779872e-010 1347.8881 283.1433)" class="st9" width="6.1" height="1.2"/>

				<rect x="537.4" y="814.9" transform="matrix(1.779872e-010 1 -1 1.779872e-010 1355.9211 275.1102)" class="st9" width="6.1" height="1.2"/>

				<rect x="545.4" y="814.9" transform="matrix(1.779872e-010 1 -1 1.779872e-010 1363.9543 267.0771)" class="st9" width="6.1" height="1.2"/>

				<rect x="553.4" y="814.9" transform="matrix(1.779872e-010 1 -1 1.779872e-010 1371.9874 259.0439)" class="st9" width="6.1" height="1.2"/>

				<rect x="515.6" y="822.8" transform="matrix(1.115843e-010 1 -1 1.115843e-010 1343.8579 302.9005)" class="st9" width="9.7" height="1.2"/>

				<rect x="520.6" y="822.8" transform="matrix(1.115843e-010 1 -1 1.115843e-010 1348.8579 297.9005)" class="st9" width="9.7" height="1.2"/>

				<rect x="525.6" y="822.8" transform="matrix(1.115843e-010 1 -1 1.115843e-010 1353.8579 292.9005)" class="st9" width="9.7" height="1.2"/>

				<rect x="530.6" y="822.8" transform="matrix(1.115843e-010 1 -1 1.115843e-010 1358.8579 287.9005)" class="st9" width="9.7" height="1.2"/>

				<rect x="535.6" y="822.8" transform="matrix(1.115843e-010 1 -1 1.115843e-010 1363.8579 282.9005)" class="st9" width="9.7" height="1.2"/>

				<rect x="540.6" y="822.8" transform="matrix(1.115843e-010 1 -1 1.115843e-010 1368.8579 277.9005)" class="st9" width="9.7" height="1.2"/>

				<rect x="545.6" y="822.8" transform="matrix(1.115843e-010 1 -1 1.115843e-010 1373.8579 272.9005)" class="st9" width="9.7" height="1.2"/>

				<rect x="501" y="811.3" transform="matrix(-1 2.467481e-011 -2.467481e-011 -1 1063.3334 1623.7584)" class="st9" width="61.3" height="1.2"/>

				<rect x="552" y="822.2" transform="matrix(2.229806e-010 1 -1 2.229806e-010 1380.2585 266.4999)" class="st9" width="9.7" height="2.4"/>
			<polygon class="st8" points="541,723.5 544,808.4 522.8,807.9 524.3,723.5 			"/>
			<rect x="514.8" y="719.7" class="st9" width="33.8" height="3.3"/>
			<rect x="524" y="701" class="st10" width="16.4" height="12.3"/>
			<polygon class="st9" points="528.6,701 532.4,658.3 535.2,701 			"/>
			<rect x="514.8" y="707.2" class="st9" width="0.8" height="11"/>
			<rect x="547.8" y="707.2" class="st9" width="0.8" height="11"/>
			<rect x="543.5" y="707.2" class="st9" width="0.8" height="6.8"/>
			<rect x="519.3" y="707.2" class="st9" width="0.8" height="7.6"/>
			<rect x="532.5" y="703" class="st11" width="5.3" height="7.6"/>
			<polygon class="st10" points="542.5,827.8 532.5,827.5 522.5,827.5 522.5,1022.5 533.5,1022.5 533.5,835.9 			"/>
			<polygon class="st10" points="531.8,728.5 539.9,723.5 531.4,723.5 531.4,723.5 524,723.5 524,741.5 521.5,741.5 521.5,751.5
				523.8,751.5 523.7,758.5 521.5,758.5 521.5,768.5 523.5,768.5 523.4,775.5 521.5,775.5 521.5,786.5 523.2,786.5 523,792.5
				521.5,792.5 521.5,803.5 522.9,803.5 522.8,808.2 532.4,808.3 532.1,799.3 536.5,796 536.5,787.3 531.5,790.7 531.5,784
				536.5,781 536.5,771.5 531.5,774 531.5,767.3 536.5,765 536.5,754.5 531.5,757 531.5,750.3 536.5,748 536.5,738 531.6,740.2
				"/>
			<rect x="507.7" y="825.8" class="st9" width="48" height="2.4"/>
			<rect x="514.8" y="711.7" class="st9" width="33.8" height="3.3"/>
		</g>
	</g>
	<polyline class="st2" points="699,881.5 668.5,881.5 668.5,901 656.5,901 656.5,861.5 635.5,861.5 635.5,888 615.5,889.7
		615.5,913 584.9,914.2 	"/>
	<polyline class="st2" points="1400,904.5 1369.5,904.5 1369.5,924 1357.5,924 1357.5,884.5 1336.5,884.5 1336.5,911 1316.5,912.7
		1316.5,936 1265.5,938 	"/>
	<line class="st2" x1="519.9" y1="828.2" x2="434.5" y2="960"/>
	<line class="st2" x1="542.5" y1="827.2" x2="598.5" y2="913.7"/>
	<polygon class="st12" points="4060.5,909.5 4060.5,798.5 4013.5,798.5 4013.5,897.6 3986.5,898 3986.5,845.1 3968.5,845
		3968.5,813.3 3941.5,815 3941.5,947.3 3914.5,947 3914.5,858.5 3893.5,858.5 3893.5,962 3844.5,961 3844.5,906.5 3805.5,907
		3805.5,959.5 3772.5,958 3772.5,893.2 3745.5,893 3744.5,862 3715.5,862 3716.5,928.6 3691.5,927 3691.5,887.2 3649.5,886
		3649.5,818.5 3620.5,819 3620.5,881.9 3595.5,882 3595.5,924.7 3326.6,923.2 3326.5,877 3286.5,878 3286.5,906.1 3262.5,906
		3262.5,958.6 3239.5,959 3239.5,803.5 3179.5,803.5 3179.5,988.5 3131.5,988.5 3131.5,959.5 3104.5,958 3104.5,873.4 3056.5,873
		3056.5,987.5 3005.1,987.5 3003,927.7 2965.5,927 2965.5,960.8 2929.5,960 2929.5,872.5 2873.5,872.5 2873.5,951.6 2826.4,951.6
		2826.6,910 2790.5,909.5 2790.5,798.5 2743.5,798.5 2743.5,897.6 2716.5,898 2716.5,845.1 2698.5,845 2698.5,813.3 2671.5,815
		2671.5,947.3 2644.5,947 2644.5,858.5 2623.5,858.5 2623.5,962 2574.5,961 2574.5,906.5 2535.5,907 2535.5,959.5 2502.5,958
		2502.5,893.2 2475.5,893 2474.5,862 2445.5,862 2446.5,928.6 2421.5,927 2421.5,887.2 2379.5,886 2379.5,818.5 2350.5,819
		2350.5,881.9 2325.5,882 2325.5,924.7 2056.6,923.2 2056.5,877 2016.5,878 2016.5,906.1 1992.5,906 1992.5,958.6 1969.5,959
		1969.5,803.5 1933.5,803.5 1933.5,988.5 1861.5,988.5 1861.5,959.5 1834.5,958 1834.5,873.4 1786.5,873 1786.5,987.5 1735.1,987.5
		1733,927.7 1695.5,927 1695.5,960.8 1659.5,960 1659.5,872.5 1603.5,872.5 1603.5,951.6 1601.4,951.6 1601.6,910 1565.5,909.5
		1565.5,798.5 1518.5,798.5 1518.5,897.6 1491.5,898 1491.5,845.1 1473.5,845 1473.5,813.3 1446.5,815 1446.5,947.3 1419.5,947
		1419.5,858.5 1398.5,858.5 1398.5,962 1349.5,961 1349.5,906.5 1310.5,907 1310.5,959.5 1277.5,958 1277.5,893.2 1250.5,893
		1249.5,862 1220.5,862 1221.5,928.6 1196.5,927 1196.5,887.2 1154.5,886 1154.5,818.5 1125.5,819 1125.5,881.9 1100.5,882
		1100.5,924.7 831.6,923.2 831.5,877 791.5,878 791.5,906.1 767.5,906 767.5,958.6 744.5,959 744.5,803.5 684.5,803.5 684.5,988.5
		636.5,988.5 636.5,959.5 609.5,958 609.5,873.4 561.5,873 561.5,987.5 510.1,987.5 508,927.7 470.5,927 470.5,960.8 434.5,960
		434.5,872.5 378.5,872.5 378.5,951.6 331.4,951.6 331.6,910 295.5,909.5 295.5,798.5 248.5,798.5 248.5,897.6 221.5,898
		221.5,845.1 203.5,845 203.5,813.3 176.5,815 176.5,947.3 149.5,947 149.5,858.5 128.5,858.5 128.5,962 79.5,961 79.5,906.5
		40.5,907 40.5,959.5 -11.5,958 -11.5,893.2 -19.5,893 -20.5,862 -49.5,862 -48.5,928.6 -73.5,927 -73.5,887.2 -115.5,886
		-115.5,818.5 -144.5,819 -144.5,881.9 -169.5,882 -169.5,924.7 -438.4,923.2 -438.5,877 -478.5,878 -478.5,906.1 -502.5,906
		-502.5,958.6 -525.5,959 -525.5,803.5 -585.5,803.5 -585.5,988.5 -633.5,988.5 -633.5,959.5 -660.5,958 -660.5,873.4 -708.5,873
		-708.5,987.5 -759.9,987.5 -762,927.7 -799.5,927 -799.5,960.8 -835.5,960 -835.5,872.5 -891.5,872.5 -891.5,951.6 -949,951.5
		-948.4,1031.5 -891.5,1031.5 321.6,1031.5 331,1031.5 378.5,1031.5 1546.6,1031.5 1601,1031.5 1603.5,1031.5 2816.6,1031.5
		2826,1031.5 2873.5,1031.5 4096,1031.5 4096.6,910 	"/>
	<rect y="1031.5" class="st13" width="1920" height="33.2"/>
	<g class="st5">
		<path class="st7" d="M902.8,860c-25.8,26.8-35.5,78.2-35.5,78.2h205.4c0,0-3.6-61.8-48.3-87.1C986.2,829.4,928.5,833.2,902.8,860z
			"/>
		<path class="st14" d="M917.8,887c25.8-26.8,83.4-30.6,121.6-9c9.9,5.6,17.8,13.1,24.1,21.2c-6.8-17.4-18.7-36.6-39.1-48.2
			c-38.1-21.6-93.2-15.1-121.6,9c-36.8,31.1-35.5,78.2-35.5,78.2h22.4C895.3,921.6,904.3,901,917.8,887z"/>
		<g>
			<path class="st15" d="M867.2,938.2c0-56.7,46-102.7,102.7-102.7c56.7,0,102.7,46,102.7,102.7"/>
			<path class="st16" d="M817,950.7c0,0,15.7-16,157-16s144.5,13.7,144.5,13.7l1.6,36c0,0-5.9-7.7-146.5-7.7S817,984.3,817,984.3
				V950.7z"/>
			<circle class="st9" cx="971.4" cy="883.9" r="1.5"/>

				<ellipse transform="matrix(0.2142 -0.9768 0.9768 0.2142 -73.2507 1648.0374)" class="st9" cx="987.7" cy="869.5" rx="1.5" ry="1.5"/>

				<ellipse transform="matrix(0.2142 -0.9768 0.9768 0.2142 -58.5745 1642.0021)" class="st9" cx="991.3" cy="857.4" rx="1.5" ry="1.5"/>
			<circle class="st9" cx="1011.6" cy="858.5" r="1.5"/>
			<circle class="st9" cx="944.6" cy="846.7" r="1.5"/>

				<ellipse transform="matrix(0.7071 -0.7071 0.7071 0.7071 -331.4913 961.7095)" class="st9" cx="995.1" cy="881" rx="1.5" ry="1.5"/>

				<ellipse transform="matrix(0.7071 -0.7071 0.7071 0.7071 -320.3224 980.6733)" class="st9" cx="1023.6" cy="877" rx="1.5" ry="1.5"/>

				<ellipse transform="matrix(0.7071 -0.7071 0.7071 0.7071 -306.9663 955.165)" class="st9" cx="999.5" cy="848.1" rx="1.5" ry="1.5"/>

				<ellipse transform="matrix(0.7071 -0.7071 0.7071 0.7071 -312.0439 989.4379)" class="st9" cx="1038.3" cy="871.4" rx="1.5" ry="1.5"/>

				<ellipse transform="matrix(0.7071 -0.7071 0.7071 0.7071 -331.1516 983.9542)" class="st9" cx="1022.2" cy="891.7" rx="1.5" ry="1.5"/>

				<ellipse transform="matrix(0.7071 -0.7071 0.7071 0.7071 -334.4205 1011.8874)" class="st9" cx="1054.2" cy="909.6" rx="1.5" ry="1.5"/>

				<ellipse transform="matrix(0.7071 -0.7071 0.7071 0.7071 -319.7603 999.8441)" class="st9" cx="1047" cy="885.9" rx="1.5" ry="1.5"/>

				<ellipse transform="matrix(0.7071 -0.7071 0.7071 0.7071 -326.9446 1008.7908)" class="st9" cx="1054.2" cy="899.1" rx="1.5" ry="1.5"/>

				<ellipse transform="matrix(0.7071 -0.7071 0.7071 0.7071 -326.6506 1000.6374)" class="st9" cx="1044.6" cy="894.6" rx="1.5" ry="1.5"/>

				<ellipse transform="matrix(0.7071 -0.7071 0.7071 0.7071 -339.2285 991.7801)" class="st9" cx="1027.6" cy="905.4" rx="1.5" ry="1.5"/>

				<ellipse transform="matrix(0.7071 -0.7071 0.7071 0.7071 -327.8404 991.9482)" class="st9" cx="1033.5" cy="891.7" rx="1.5" ry="1.5"/>

				<ellipse transform="matrix(0.7071 -0.7071 0.7071 0.7071 -337.0471 1003.7391)" class="st9" cx="1043.1" cy="908.7" rx="1.5" ry="1.5"/>

				<ellipse transform="matrix(0.7071 -0.7071 0.7071 0.7071 -345.5655 1001.0778)" class="st9" cx="1035.6" cy="917.7" rx="1.5" ry="1.5"/>
			<circle class="st9" cx="963.7" cy="909.2" r="1.5"/>
			<circle class="st9" cx="974.3" cy="918.5" r="1.5"/>
			<circle class="st9" cx="983.2" cy="928.1" r="1.5"/>
			<circle class="st9" cx="955.9" cy="920" r="1.5"/>
			<circle class="st9" cx="965.1" cy="928.5" r="1.5"/>
			<circle class="st9" cx="948.6" cy="927.5" r="1.5"/>
			<circle class="st9" cx="989.1" cy="893.2" r="1.5"/>
			<circle class="st9" cx="971.4" cy="869.5" r="1.5"/>
			<circle class="st9" cx="972.7" cy="858.5" r="1.5"/>
			<circle class="st9" cx="958.8" cy="851" r="1.5"/>
			<circle class="st9" cx="919.5" cy="857.4" r="1.5"/>
			<circle class="st9" cx="981.7" cy="848.9" r="1.5"/>

				<ellipse transform="matrix(0.9179 -0.3967 0.3967 0.9179 -263.8945 450.3165)" class="st9" cx="956.6" cy="863" rx="1.5" ry="1.5"/>

				<ellipse transform="matrix(0.9179 -0.3967 0.3967 0.9179 -263.5253 443.1014)" class="st9" cx="939.3" cy="858.5" rx="1.5" ry="1.5"/>

				<ellipse transform="matrix(0.9179 -0.3967 0.3967 0.9179 -278.5245 446.204)" class="st9" cx="939.3" cy="896.4" rx="1.5" ry="1.5"/>

				<ellipse transform="matrix(0.9179 -0.3967 0.3967 0.9179 -283.2462 451.0223)" class="st9" cx="948.6" cy="910.2" rx="1.5" ry="1.5"/>

				<ellipse transform="matrix(0.9179 -0.3967 0.3967 0.9179 -283.9241 444.8358)" class="st9" cx="933.3" cy="908.7" rx="1.5" ry="1.5"/>

				<ellipse transform="matrix(0.9179 -0.3967 0.3967 0.9179 -292.017 445.2687)" class="st9" cx="930.3" cy="928.5" rx="1.5" ry="1.5"/>

				<ellipse transform="matrix(0.9179 -0.3967 0.3967 0.9179 -288.673 447.2467)" class="st9" cx="936.8" cy="921.4" rx="1.5" ry="1.5"/>

				<ellipse transform="matrix(0.9179 -0.3967 0.3967 0.9179 -290.671 434.6796)" class="st9" cx="905.4" cy="920" rx="1.5" ry="1.5"/>

				<ellipse transform="matrix(0.9179 -0.3967 0.3967 0.9179 -293.2699 423.375)" class="st9" cx="876.8" cy="920.6" rx="1.5" ry="1.5"/>

				<ellipse transform="matrix(0.9179 -0.3967 0.3967 0.9179 -288.9481 441.3601)" class="st9" cx="922.4" cy="919.1" rx="1.5" ry="1.5"/>

				<ellipse transform="matrix(0.9179 -0.3967 0.3967 0.9179 -293.6366 438.4461)" class="st9" cx="913" cy="929" rx="1.5" ry="1.5"/>

				<ellipse transform="matrix(0.9179 -0.3967 0.3967 0.9179 -295.4399 428.7882)" class="st9" cx="888.8" cy="928.5" rx="1.5" ry="1.5"/>

				<ellipse transform="matrix(0.7071 -0.7071 0.7071 0.7071 -364.0834 913.7318)" class="st9" cx="920.9" cy="896.4" rx="1.5" ry="1.5"/>

				<ellipse transform="matrix(0.7071 -0.7071 0.7071 0.7071 -365.4672 904.0176)" class="st9" cx="908.5" cy="893.2" rx="1.5" ry="1.5"/>

				<ellipse transform="matrix(0.7071 -0.7071 0.7071 0.7071 -369.2061 896.7243)" class="st9" cx="897.8" cy="894" rx="1.5" ry="1.5"/>

				<ellipse transform="matrix(0.7071 -0.7071 0.7071 0.7071 -383.894 892.4394)" class="st9" cx="885.3" cy="909.6" rx="1.5" ry="1.5"/>

				<ellipse transform="matrix(0.9179 -0.3967 0.3967 0.9179 -273.5034 442.6802)" class="st9" cx="933.3" cy="882.5" rx="1.5" ry="1.5"/>

				<ellipse transform="matrix(0.9179 -0.3967 0.3967 0.9179 -269.1555 437.8825)" class="st9" cx="923.9" cy="869.5" rx="1.5" ry="1.5"/>

				<ellipse transform="matrix(0.9179 -0.3967 0.3967 0.9179 -268.5604 443.6678)" class="st9" cx="938.2" cy="871" rx="1.5" ry="1.5"/>

				<ellipse transform="matrix(0.9179 -0.3967 0.3967 0.9179 -274.2434 436.1942)" class="st9" cx="917.3" cy="881" rx="1.5" ry="1.5"/>

				<ellipse transform="matrix(0.9179 -0.3967 0.3967 0.9179 -275.2605 431.2773)" class="st9" cx="904.9" cy="881" rx="1.5" ry="1.5"/>

				<ellipse transform="matrix(0.9179 -0.3967 0.3967 0.9179 -276.7277 427.0926)" class="st9" cx="894" cy="882.5" rx="1.5" ry="1.5"/>

				<ellipse transform="matrix(0.9179 -0.3967 0.3967 0.9179 -284.8256 437.2253)" class="st9" cx="914.5" cy="907.1" rx="1.5" ry="1.5"/>

				<ellipse transform="matrix(0.9179 -0.3967 0.3967 0.9179 -286.627 430.0858)" class="st9" cx="896.3" cy="907.9" rx="1.5" ry="1.5"/>

				<ellipse transform="matrix(0.9179 -0.3967 0.3967 0.9179 -282.1179 424.7914)" class="st9" cx="885.7" cy="894.3" rx="1.5" ry="1.5"/>
			<circle class="st9" cx="954.4" cy="897.3" r="1.5"/>
			<circle class="st9" cx="998" cy="904.4" r="1.5"/>
			<circle class="st9" cx="1010.2" cy="876.4" r="1.5"/>
			<circle class="st9" cx="1008.1" cy="891.1" r="1.5"/>
			<circle class="st9" cx="1059.8" cy="921.4" r="1.5"/>
			<circle class="st9" cx="1013.9" cy="905.9" r="1.5"/>
			<circle class="st9" cx="1062.7" cy="932.3" r="1.5"/>
			<circle class="st9" cx="1010.2" cy="917.7" r="1.5"/>
			<circle class="st9" cx="1041.2" cy="928.5" r="1.5"/>
			<circle class="st9" cx="1027.6" cy="928.5" r="1.5"/>
			<circle class="st9" cx="1013.9" cy="928.1" r="1.5"/>
			<circle class="st9" cx="972.8" cy="897.3" r="1.5"/>
			<circle class="st9" cx="951.5" cy="883.9" r="1.5"/>
			<circle class="st9" cx="909.1" cy="868.1" r="1.5"/>
			<circle class="st9" cx="983.2" cy="909.2" r="1.5"/>
			<circle class="st9" cx="992" cy="919.1" r="1.5"/>
			<circle class="st9" cx="997.4" cy="928.5" r="1.5"/>
			<path class="st9" d="M894.7,982.5c0,0-23.7,4.2-34.6,6.8c-11.9,0.4-41.8,0.1-43.8-2.9c-4-6,72.3-8.3,72.3-8.3L894.7,982.5z"/>
			<path class="st9" d="M1037.5,982.4c0,0,19.3,2,47,9.6c18.9-0.2,35.4-1.2,36.6-4.4c3.6-9.2-77.6-9.5-77.6-9.5L1037.5,982.4z"/>
			<polygon class="st8" points="888.5,978.1 943.1,1017 993.5,1017 1043.1,978 1033,978 991.3,1007.3 947.1,1008 903.3,978 			"/>
			<path class="st8" d="M816.5,959c0,0,7.9-11.8,61.9-14.3c56-2.6,172.7-1.1,193.2,0.3c28.2,2,47.2,9,47.2,9"/>
			<path class="st8" d="M817,976.4c0,0,6.4-12.1,61.3-14.7c56-2.6,172.7-1.1,193.2,0.3c28.2,2,47.2,9,47.2,9"/>
			<path class="st8" d="M816.5,982.5c0,0,6.9-8.3,60.9-10.8c56-2.6,172.7-1.1,193.2,0.3c28.2,2,48.2,5,48.2,5"/>
			<rect x="931.6" y="943.3" class="st9" width="2.4" height="27"/>
			<rect x="948.9" y="943.3" class="st9" width="2.4" height="27"/>
			<rect x="915" y="943.3" class="st9" width="2.4" height="27"/>
			<rect x="897.7" y="943.8" class="st9" width="2.4" height="27"/>
			<rect x="882.6" y="944.6" class="st9" width="2.4" height="27"/>
			<rect x="870.1" y="945" class="st9" width="2.4" height="27"/>
			<rect x="857.6" y="946" class="st9" width="2.4" height="27"/>
			<rect x="846.9" y="947.4" class="st9" width="2.4" height="26.6"/>
			<rect x="838.4" y="949.4" class="st9" width="2.4" height="26.1"/>
			<rect x="829.7" y="951.6" class="st9" width="2.4" height="25.3"/>
			<rect x="967.4" y="943.3" class="st9" width="2.4" height="27"/>
			<rect x="985.1" y="943.3" class="st9" width="2.4" height="27"/>

				<rect x="1003.4" y="943.3" transform="matrix(0.9994 3.400514e-002 -3.400514e-002 0.9994 33.1157 -33.609)" class="st9" width="2.4" height="27"/>
			<rect x="1020.2" y="943.3" class="st9" width="2.4" height="27"/>
			<rect x="1034" y="943.8" class="st9" width="2.4" height="27"/>
			<rect x="1051.8" y="944.3" class="st9" width="2.4" height="27"/>
			<rect x="1064.6" y="944.6" class="st9" width="2.4" height="27"/>
			<rect x="1077.4" y="946" class="st9" width="2" height="27"/>
			<rect x="1087.6" y="946.8" class="st9" width="2" height="27"/>
			<rect x="1096.9" y="948.5" class="st9" width="2" height="26.1"/>
			<polygon class="st9" points="1107.4,975.4 1105.4,975.4 1105.4,950.2 1107.4,950.6 			"/>
			<polygon class="st9" points="1113.1,976.5 1111.2,976 1111.2,951.4 1113.1,952.2 			"/>
			<g>
				<path class="st17" d="M749.3,1044.5c0,0,25.7-26.6,71.2-42.9s74.2-19.1,74.2-19.1l10.2,7.2c0,0-62.7,12.9-79.1,19.1
					c-35.8,13.5-59.2,34.9-59.2,34.9L749.3,1044.5z"/>
				<path class="st9" d="M789,1044l-24.7,0.3c0,0,34.8-27.9,69.8-40.3c36-12.7,69-15.5,69-15.5l4.9,3.5c0,0-58.7,17.9-80.9,27.6
					S789,1044,789,1044z"/>
			</g>
			<g>
				<path class="st17" d="M1184,1040.8c0,0-25.7-22.9-71.2-39.1s-74.2-19.1-74.2-19.1l-10.2,7.2c0,0,62.7,12.9,79.1,19.1
					c35.8,13.5,57.5,32.3,57.5,32.3L1184,1040.8z"/>
				<path class="st9" d="M1143.5,1041.5l21.5-0.3c0,0-30.9-24.9-65.9-37.2c-36-12.7-69-15.5-69-15.5l-4.9,3.5
					c0,0,58.7,17.9,80.9,27.6S1143.5,1041.5,1143.5,1041.5z"/>
			</g>
			<polygon class="st9" points="902.8,1040.8 928.6,1006.6 943.1,1017 925.8,1039.3 			"/>
			<polygon class="st9" points="1032.1,1040.8 1006.3,1006.6 991.8,1017 1009.1,1039.3 			"/>
			<rect x="932.1" y="976.4" class="st9" width="2.4" height="22"/>
			<rect x="939.3" y="976.4" class="st9" width="2.4" height="24.5"/>
			<rect x="995.8" y="976.4" class="st9" width="2.4" height="25"/>
			<rect x="1002.9" y="976.4" class="st9" width="2.4" height="21.1"/>
			<rect x="946.5" y="976.4" class="st9" width="1.6" height="29"/>
			<g>
				<rect x="1010.2" y="976.4" class="st9" width="1.6" height="16.4"/>
				<rect x="1015.6" y="976.4" class="st9" width="1.6" height="13.1"/>
				<rect x="1022" y="976.4" class="st9" width="1.4" height="8.7"/>
			</g>
			<g>

					<rect x="926" y="976.4" transform="matrix(-1 -4.435797e-011 4.435797e-011 -1 1853.6848 1969.1283)" class="st9" width="1.6" height="16.4"/>

					<rect x="920.6" y="976.4" transform="matrix(-1 -4.546686e-011 4.546686e-011 -1 1842.9348 1965.8518)" class="st9" width="1.6" height="13.1"/>

					<rect x="914.5" y="976.4" transform="matrix(-1 -4.422386e-011 4.422386e-011 -1 1830.3284 1961.4191)" class="st9" width="1.4" height="8.7"/>
			</g>
			<rect x="953" y="976.4" class="st9" width="1.6" height="29"/>
			<rect x="959.4" y="976.4" class="st9" width="1.6" height="29"/>
			<rect x="976.2" y="976.4" class="st9" width="1.6" height="31.6"/>
			<rect x="967.9" y="977.1" class="st9" width="1.5" height="30.6"/>

				<rect x="967.7" y="974.7" transform="matrix(2.486615e-011 1 -1 2.486615e-011 1951.7191 14.817)" class="st9" width="1.5" height="17.1"/>

				<rect x="932" y="969.2" transform="matrix(-0.5837 0.812 -0.812 -0.5837 2279.0659 806.4456)" class="st9" width="1.5" height="36.5"/>

				<rect x="1004.2" y="969.1" transform="matrix(0.5837 0.812 -0.812 0.5837 1220.1118 -404.9827)" class="st9" width="1.5" height="36.5"/>
			<rect x="982.9" y="976.4" class="st9" width="1.6" height="29"/>
			<rect x="989.4" y="976.4" class="st9" width="1.6" height="29"/>
			<polygon class="st9" points="907.9,978.1 947.5,1004.3 961,1003.6 961,1008 946,1008 902.8,978 			"/>
			<polygon class="st9" points="977,1004 977,1008 992,1008 1033,978 1030.5,977.2 990.2,1004 			"/>
			<g>
				<polygon class="st9" points="848.1,1009.3 852.7,1021.7 996.9,1019 995.9,1016.5 855.4,1019 852,1008 				"/>
				<rect x="868" y="1002.3" class="st9" width="2.1" height="17.3"/>
				<rect x="873.7" y="999.3" class="st9" width="2.1" height="20.3"/>
				<rect x="881.1" y="999.3" class="st9" width="2.1" height="20.3"/>
				<rect x="888.2" y="995.8" class="st9" width="2.1" height="23.8"/>
				<rect x="895.5" y="992.4" class="st9" width="2.1" height="27.3"/>
				<rect x="901.4" y="992.4" class="st9" width="2.1" height="27.3"/>
				<rect x="907" y="992.4" class="st9" width="2.1" height="27.3"/>
				<polygon class="st9" points="916,1020.2 913.9,1020.2 913.9,996.4 916,997.7 				"/>
				<polygon class="st9" points="923,1025.4 920.9,1025.4 920.9,1001.6 923,1002.9 				"/>
				<rect x="863.2" y="1002.3" class="st9" width="2.1" height="17.3"/>
				<rect x="857.8" y="1002.3" class="st9" width="2.1" height="17.3"/>
			</g>
			<g>
				<polygon class="st9" points="1088.9,1009.3 1084.3,1021.7 940.1,1019 941.1,1016.5 1081.7,1019 1085,1008 				"/>

					<rect x="1066.9" y="1002.3" transform="matrix(-1 -4.348445e-011 4.348445e-011 -1 2135.9241 2022)" class="st9" width="2.1" height="17.3"/>

					<rect x="1061.2" y="999.3" transform="matrix(-1 -4.348445e-011 4.348445e-011 -1 2124.4404 2019)" class="st9" width="2.1" height="20.3"/>

					<rect x="1053.8" y="999.3" transform="matrix(-1 -4.261492e-011 4.261492e-011 -1 2109.6804 2019)" class="st9" width="2.1" height="20.3"/>

					<rect x="1046.7" y="995.8" transform="matrix(-1 -4.261492e-011 4.261492e-011 -1 2095.4324 2015.5)" class="st9" width="2.1" height="23.8"/>

					<rect x="1039.4" y="992.4" transform="matrix(-1 -4.783297e-011 4.783297e-011 -1 2080.9282 2012.0679)" class="st9" width="2.1" height="27.3"/>

					<rect x="1033.6" y="992.4" transform="matrix(-1 -4.783297e-011 4.783297e-011 -1 2069.2134 2012.0679)" class="st9" width="2.1" height="27.3"/>

					<rect x="1028" y="992.4" transform="matrix(-1 -4.261492e-011 4.261492e-011 -1 2058.011 2012.0679)" class="st9" width="2.1" height="27.3"/>
				<polygon class="st9" points="1021,1020.2 1023.1,1020.2 1023.1,993.8 1021,995 				"/>
				<polygon class="st9" points="1014,1025.4 1016.1,1025.4 1016.1,999.1 1014,1000.9 				"/>

					<rect x="1071.7" y="1002.3" transform="matrix(-1 -4.348445e-011 4.348445e-011 -1 2145.5908 2022)" class="st9" width="2.1" height="17.3"/>

					<rect x="1077.1" y="1002.3" transform="matrix(-1 -4.261492e-011 4.261492e-011 -1 2156.3621 2022)" class="st9" width="2.1" height="17.3"/>
			</g>
		</g>
	</g>
	<g class="st5">
		<polygon class="st18" points="592.5,1034.6 592.5,938.5 631.5,921.1 631.5,1040.5 		"/>
		<rect x="632" y="921.1" class="st10" width="41.1" height="119"/>
	</g>
	<g class="st5">
		<polygon class="st19" points="1408.5,1032 1408.5,893 1437.5,869 1437.5,1040.5 		"/>
		<polygon class="st18" points="1468.1,1040.5 1437.5,1040.5 1437.5,869 1468.1,892.6 		"/>
	</g>
	<g class="st5">
		<polygon class="st18" points="1329.5,1034.3 1329.5,981.8 1265.5,973.4 1265.5,1038.5 		"/>
		<polygon class="st20" points="1223.5,1031.5 1264.6,1038.3 1264.6,973.4 1223.5,985 		"/>
	</g>
	<polygon class="st21" points="1492.5,1030.5 1492.5,961.5 1518.5,961.5 1518.5,919 1546.5,918.6 1546.5,985 1565.5,986.5
		1565.5,1030.5 	"/>
	<polygon class="st21" points="61.5,1030.5 61.5,961.5 106.5,961.5 106.5,943 134.4,943.1 134.5,985 204.5,986.5 204.5,1030.5 	"/>
	<polygon class="st21" points="1712.5,1030.5 1712.5,961.5 1757.5,961.5 1757.5,901 1808.4,901.1 1808.5,985 1836.5,986.5
		1836.5,1030.5 	"/>
	<polygon class="st21" points="345.5,957 345.5,911 406.5,911.5 406.5,936 455.5,938 455.5,1031.5 345.5,1031.5 345.5,963 	"/>
	<rect y="1064.7" class="st12" width="1920" height="17.2"/>
	<linearGradient id="SVGID_3_" gradientUnits="userSpaceOnUse" x1="532" y1="679.6667" x2="537.2062" y2="679.6667">
		<stop  offset="0" style="stop-color:#FF4300"/>
		<stop  offset="0.2647" style="stop-color:#EF1104"/>
		<stop  offset="0.3664" style="stop-color:#F01A09"/>
		<stop  offset="0.5291" style="stop-color:#F43116"/>
		<stop  offset="0.7314" style="stop-color:#FA572A"/>
		<stop  offset="0.8624" style="stop-color:#FF733A"/>
		<stop  offset="1" style="stop-color:#FF4700"/>
	</linearGradient>
	<polygon class="st22" points="532.3,658.3 537.2,701 532,701 	"/>
	<linearGradient id="SVGID_4_" gradientUnits="userSpaceOnUse" x1="882.6357" y1="857.7537" x2="1038.2966" y2="857.7537">
		<stop  offset="0" style="stop-color:#FF4300"/>
		<stop  offset="0.2647" style="stop-color:#EF1104"/>
		<stop  offset="0.3664" style="stop-color:#F01A09"/>
		<stop  offset="0.5291" style="stop-color:#F43116"/>
		<stop  offset="0.7314" style="stop-color:#FA572A"/>
		<stop  offset="0.8624" style="stop-color:#FF733A"/>
		<stop  offset="1" style="stop-color:#FF4700"/>
	</linearGradient>
	<path class="st23" d="M884.3,881c0,0,23.3-38.7,73-44.8c47.3-5.8,79.6,23.8,79.6,23.8"/>
	<linearGradient id="SVGID_5_" gradientUnits="userSpaceOnUse" x1="684" y1="839.5" x2="745" y2="839.5">
		<stop  offset="0" style="stop-color:#FF4300"/>
		<stop  offset="0.2647" style="stop-color:#EF1104"/>
		<stop  offset="0.3664" style="stop-color:#F01A09"/>
		<stop  offset="0.5291" style="stop-color:#F43116"/>
		<stop  offset="0.7314" style="stop-color:#FA572A"/>
		<stop  offset="0.8624" style="stop-color:#FF733A"/>
		<stop  offset="1" style="stop-color:#FF4700"/>
	</linearGradient>
	<polyline class="st24" points="684,804 744,804 744,876 	"/>
	<linearGradient id="SVGID_6_" gradientUnits="userSpaceOnUse" x1="1125" y1="850.0427" x2="1155.0071" y2="850.0427">
		<stop  offset="0" style="stop-color:#FF4300"/>
		<stop  offset="0.2647" style="stop-color:#EF1104"/>
		<stop  offset="0.3664" style="stop-color:#F01A09"/>
		<stop  offset="0.5291" style="stop-color:#F43116"/>
		<stop  offset="0.7314" style="stop-color:#FA572A"/>
		<stop  offset="0.8624" style="stop-color:#FF733A"/>
		<stop  offset="1" style="stop-color:#FF4700"/>
	</linearGradient>
	<polyline class="st25" points="1125.5,882 1125.5,819 1155,818.6 	"/>
	<linearGradient id="SVGID_7_" gradientUnits="userSpaceOnUse" x1="540.0124" y1="765.9368" x2="544.9995" y2="765.9368">
		<stop  offset="0" style="stop-color:#FF4300"/>
		<stop  offset="0.2647" style="stop-color:#EF1104"/>
		<stop  offset="0.3664" style="stop-color:#F01A09"/>
		<stop  offset="0.5291" style="stop-color:#F43116"/>
		<stop  offset="0.7314" style="stop-color:#FA572A"/>
		<stop  offset="0.8624" style="stop-color:#FF733A"/>
		<stop  offset="1" style="stop-color:#FF4700"/>
	</linearGradient>
	<line class="st26" x1="541" y1="723.5" x2="544" y2="808.4"/>
	<linearGradient id="SVGID_8_" gradientUnits="userSpaceOnUse" x1="515" y1="712" x2="549" y2="712">
		<stop  offset="0" style="stop-color:#FF4300"/>
		<stop  offset="0.2647" style="stop-color:#EF1104"/>
		<stop  offset="0.3664" style="stop-color:#F01A09"/>
		<stop  offset="0.5291" style="stop-color:#F43116"/>
		<stop  offset="0.7314" style="stop-color:#FA572A"/>
		<stop  offset="0.8624" style="stop-color:#FF733A"/>
		<stop  offset="1" style="stop-color:#FF4700"/>
	</linearGradient>
	<line class="st27" x1="515" y1="712" x2="549" y2="712"/>
	<polyline class="st28" points="808,808.5 843,808.5 844.1,827.5 863.9,827.1 865,847.5 	"/>
	<polyline class="st28" points="1055.5,856 1055.5,839 1068.8,839.2 1068.6,817.5 1090,817.5 	"/>
	<path class="st29" d="M855.4,940.6c0,0,58.1-7,118.6-5.9c60.6,1,120,5.9,120,5.9"/>
	<linearGradient id="SVGID_9_" gradientUnits="userSpaceOnUse" x1="791.4761" y1="893.6514" x2="832.5051" y2="893.6514">
		<stop  offset="0" style="stop-color:#FF4300"/>
		<stop  offset="0.2647" style="stop-color:#EF1104"/>
		<stop  offset="0.3664" style="stop-color:#F01A09"/>
		<stop  offset="0.5291" style="stop-color:#F43116"/>
		<stop  offset="0.7314" style="stop-color:#FA572A"/>
		<stop  offset="0.8624" style="stop-color:#FF733A"/>
		<stop  offset="1" style="stop-color:#FF4700"/>
	</linearGradient>
	<polyline class="st30" points="791.5,878 831.5,877 830.9,911.3 	"/>
	<linearGradient id="SVGID_10_" gradientUnits="userSpaceOnUse" x1="1098.9883" y1="902.8029" x2="1125.5031" y2="902.8029">
		<stop  offset="0" style="stop-color:#FF4300"/>
		<stop  offset="0.2647" style="stop-color:#EF1104"/>
		<stop  offset="0.3664" style="stop-color:#F01A09"/>
		<stop  offset="0.5291" style="stop-color:#F43116"/>
		<stop  offset="0.7314" style="stop-color:#FA572A"/>
		<stop  offset="0.8624" style="stop-color:#FF733A"/>
		<stop  offset="1" style="stop-color:#FF4700"/>
	</linearGradient>
	<polyline class="st31" points="1100.5,924.7 1100,882 1125.5,881.9 	"/>
	<linearGradient id="SVGID_11_" gradientUnits="userSpaceOnUse" x1="1445" y1="832.1683" x2="1473.0615" y2="832.1683">
		<stop  offset="0" style="stop-color:#FF4300"/>
		<stop  offset="0.2647" style="stop-color:#EF1104"/>
		<stop  offset="0.3664" style="stop-color:#F01A09"/>
		<stop  offset="0.5291" style="stop-color:#F43116"/>
		<stop  offset="0.7314" style="stop-color:#FA572A"/>
		<stop  offset="0.8624" style="stop-color:#FF733A"/>
		<stop  offset="1" style="stop-color:#FF4700"/>
	</linearGradient>
	<polyline class="st32" points="1446,852 1446,815 1473,813.3 	"/>
	<linearGradient id="SVGID_12_" gradientUnits="userSpaceOnUse" x1="248" y1="853.7523" x2="296.5" y2="853.7523">
		<stop  offset="0" style="stop-color:#FF4300"/>
		<stop  offset="0.2647" style="stop-color:#EF1104"/>
		<stop  offset="0.3664" style="stop-color:#F01A09"/>
		<stop  offset="0.5291" style="stop-color:#F43116"/>
		<stop  offset="0.7314" style="stop-color:#FA572A"/>
		<stop  offset="0.8624" style="stop-color:#FF733A"/>
		<stop  offset="1" style="stop-color:#FF4700"/>
	</linearGradient>
	<polyline class="st33" points="248,799 295,799 295.5,909.5 	"/>
</g>
</svg>